<svg height="60" viewBox="0 0 60 60" width="60" xmlns="http://www.w3.org/2000/svg"><path d="m662.214741 147c-2.495974 0-5.510514-.625634-8.823683-1.874883-7.270004-2.742698-15.175605-8.159475-22.266028-15.251336s-12.506103-15.001083-15.248244-22.27458c-2.495974-6.609517-2.502028-12.0343674-.020178-14.5167206.359162-.3592349.724378-.7426878 1.099682-1.1362316 2.265949-2.3814446 4.887025-5.0878151 8.218353-4.9404884 2.340607.0968723 4.606556 1.5499571 6.93102 4.435945 6.852328 8.5267825 3.763131 11.5661516.187652 15.0898826l-.633577.625633c-.585152.585271-1.692905 3.293659 8.595675 13.582307 3.361595 3.360259 6.222785 5.818394 8.508912 7.305788 1.442701.936432 4.017368 2.349154 5.072659 1.293649l.635596-.641779c3.51898-3.572167 6.557733-6.6519 15.080769.199799 2.887421 2.320899 4.338193 4.587308 4.435046 6.930407.139226 3.394568-2.564578 5.961684-4.949576 8.226075-.391446.373362-.774821.734615-1.129948 1.089814-1.238907 1.23714-3.208245 1.856719-5.69413 1.856719zm-37.280212-57.984139c-2.40921 0-4.588395 2.292645-6.51536 4.318891-.389429.4076711-.766751.8052512-1.136001 1.1745769-1.848272 1.8466287-1.658603 6.7063901.480227 12.3794751 2.643272 7.009116 7.895512 14.666066 14.788194 21.560146 6.892683 6.894081 14.546062 12.145368 21.55174 14.789175 5.671935 2.141282 10.530711 2.326954 12.378983.476289.369251-.367308.762715-.742688 1.166268-1.126141 2.074261-1.971755 4.424957-4.203855 4.324069-6.682172-.070622-1.70132-1.309529-3.531803-3.684438-5.438977-7.10253-5.707394-9.085992-3.689221-12.378983-.355199l-.645685.65187c-1.567803 1.576194-4.12431 1.231086-7.5989-1.029268-2.401139-1.562066-5.375324-4.111019-8.835789-7.570168-8.537161-8.538892-11.269213-13.761925-8.595676-16.438022l.643667-.637743c3.345453-3.293659 5.363217-5.28156-.345038-12.3855302-1.908805-2.3713537-3.738917-3.6105122-5.439892-3.6831664-.052462-.0020182-.106941-.0040364-.157386-.0040364zm37.633321 22.781141c-.12712 0-.254239-.024218-.37934-.074672-.516548-.20989-.76675-.797179-.554885-1.311813 1.283298-3.164496.548832-6.770972-1.864414-9.186725-2.479833-2.4803353-6.291389-3.1685325-9.489545-1.731593-.502424.2280536-1.105735.0060545-1.333743-.5025252-.230025-.5085797-.006053-1.105959.502424-1.3340126 3.956835-1.7921379 8.676386-.9303779 11.747423 2.1433001 2.988309 2.9889147 3.894285 7.4510957 2.306304 11.3703887-.157385.387489-.536725.627652-.934224.627652zm9.007299 3.65693c-.127119 0-.254238-.024218-.37934-.074672-.518565-.20989-.76675-.797179-.554885-1.311813 2.754248-6.79519 1.186446-14.5348846-3.997191-19.7195719-5.322862-5.3239414-13.508931-6.8173897-20.369329-3.7154572-.508477.2219991-1.105735.0040364-1.33576-.5045433-.228008-.5105979-.004036-1.1079772.504441-1.338049 7.621095-3.4430037 16.713141-1.7860834 22.627208 4.1291827 5.758699 5.7598668 7.502047 14.3572857 4.439081 21.9052537-.157386.391526-.536725.62967-.934225.62967z" fill="#175daa" opacity=".1" transform="translate(-614 -87)"/></svg>