<svg height="14" viewBox="0 0 14 14" width="14" xmlns="http://www.w3.org/2000/svg"><path d="m11.2501062 21c-.582394 0-1.28578661-.1459812-2.05885933-.4374727-1.69633437-.6399628-3.54097441-1.9038775-5.19540654-3.5586451s-2.91809059-3.5002526-3.55792362-5.1974019c-.58239401-1.5422208-.58380645-2.80801912-.00470812-3.38723488.08380448-.08382147.16902138-.17329382.25659235-.26512071.52872148-.5556704 1.14030581-1.18715684 1.91761584-1.15278062.54614151.02260354 1.07486299.36165666 1.61723801 1.03505384 1.59887636 1.98958257.87806373 2.69876867.04378549 3.52097257l-.14783486.1459812c-.13653538.136563-.39501097.7685204 2.00565762 3.1692049.78437221.7840603 1.45198312 1.3576252 1.98541272 1.7046837.33663033.2185009.93738599.5481359 1.18362048.3018515l.14830567-.1497485c.82109549-.8335056 1.53013789-1.5521098 3.51884629.0466198.6737314.5415432 1.012245 1.0703719 1.034844 1.6170951.032486.7920658-.5984016 1.3910596-1.154901 1.9194174-.0913375.0871178-.1807917.1714102-.2636545.2542899-.2890784.288666-.7485905.4332345-1.3286305.4332345zm.082392-8.2140329c-.0296611 0-.0593222-.0056509-.0885125-.0174235-.1205278-.0489744-.1789085-.1860083-.1294732-.3060897.2994362-.7383823.1280607-1.5798933-.43503-2.1435692-.5786275-.57874481-1.46799073-.73932414-2.21422719-.40403827-.1172321.0532125-.25800479.00141272-.3112065-.11725587-.05367253-.1186686-.00141244-.25805711.1172321-.31126961.92326164-.41816552 2.02449009-.21708818 2.74106539.50010336.6972721.69741349.9086665 1.73858909.5381377 2.65309069-.0367233.0904142-.1252359.1464521-.2179858.1464521zm2.1017032.8532837c-.0296611 0-.0593222-.0056509-.0885125-.0174235-.1209986-.0489744-.1789085-.1860083-.1294733-.3060897.6426579-1.5855442.2768373-3.39147303-.9326778-4.60123342-1.2420012-1.24225298-3.15208401-1.59072424-4.75284361-.86694-.11864454.05179978-.25800479.00094181-.31167732-.11772678-.05320171-.1191395-.00094162-.25852801.11770292-.31221142 1.77825559-.80336755 3.89973291-.4167528 5.27968181.96347596 1.3436965 1.34396892 1.7504777 3.35003326 1.0357856 5.11122586-.0367233.091356-.1252359.146923-.2179858.146923z" fill="#e20f20" transform="translate(0 -7)"/></svg>