<svg height="92" viewBox="0 0 111 92" width="111" xmlns="http://www.w3.org/2000/svg"><path d="m601.600872 168.849644c-.751575-.300712-1.252625-1.009532-1.252625-1.782791v-11.491482h-4.236149c-5.579874 0-10.112098-4.274402-10.112098-9.536856v-28.138022c0-5.262455 4.532224-9.536857 10.112098-9.536857h24.437571c1.13875 0 2.072525.880656 2.072525 1.954626 0 1.073971-.933775 1.954626-2.072525 1.954626h-24.437571c-3.279599 0-5.967049 2.53457-5.967049 5.649084v28.138022c0 3.093035 2.664675 5.627605 5.967049 5.627605h6.285899c1.13875 0 2.072525.880655 2.072525 1.954626v8.828036l11.387498-10.267157c.387175-.34367.911-.536985 1.434824-.536985h27.694396c3.279599 0 5.967048-2.51309 5.967048-5.627604v-14.369723c0-1.07397.933775-1.954626 2.072525-1.954626s2.072525.880656 2.072525 1.954626v14.369723c0 5.262454-4.532224 9.536856-10.112098 9.536856h-26.851721l-14.279922 12.887644c-.387175.34367-.911.536985-1.434825.536985-.2733 0-.569375-.042959-.8199-.150356zm63.279351-44.102809h-26.875732c-5.5831 0-10.103829-4.334739-10.103829-9.639943v-28.4669483c0-5.3267698 4.543333-9.6399437 10.103829-9.6399437h48.89168c5.5831 0 10.103829 4.3347398 10.103829 9.6399437v28.4669483c0 5.32677-4.543332 9.639943-10.103829 9.639943h-4.249485v11.64557c0 .776371-.49728 1.488045-1.2432 1.789967-.271244.10783-.542487.150961-.813731.150961-.519884 0-1.039768-.194092-1.42403-.539146zm-32.865698-9.639943c0 3.170183 2.689834 5.736521 5.989966 5.736521h27.666859c.542488 0 1.039768.194093 1.42403.539147l11.41484 10.416315v-9.014534c0-1.078293.926749-1.962494 2.056931-1.962494h6.306417c3.300132 0 5.989965-2.566338 5.989965-5.714955v-28.4669483c0-3.1486169-2.689833-5.7149554-5.989965-5.7149554h-48.869077c-3.300132 0-5.989966 2.5663385-5.989966 5.7149554zm30.435806-11.622044c-.581617 0-1.139-.206793-1.550979-.620379-.411978-.39061-.654319-.919081-.654319-1.47053 0-.551448.242341-1.07992.654319-1.4705291.411979-.3906094.969362-.6203796 1.550979-.6203796s1.139.2297702 1.550979.6203796c.411979.3906091.654319.9190811.654319 1.4705291 0 .551449-.24234 1.07992-.654319 1.47053-.411979.390609-.969362.620379-1.550979.620379zm7.350994 0c-.581618 0-1.163235-.206793-1.550979-.620379-.411979-.39061-.65432-.919081-.65432-1.47053 0-.551448.242341-1.07992.65432-1.4705291.411978-.3906094.969361-.6203796 1.550979-.6203796.581617 0 1.139.2297702 1.550978.6203796.411979.3906091.65432.9190811.65432 1.4705291 0 .551449-.242341 1.07992-.65432 1.47053-.411978.390609-.969361.620379-1.550978.620379zm-15.437087 0c-.581617 0-1.139-.206793-1.550978-.620379-.411979-.39061-.65432-.919081-.65432-1.47053 0-.551448.242341-1.07992.65432-1.4705291.411978-.3906094.969361-.6203796 1.550978-.6203796s1.139.2297702 1.550979.6203796c.411979.3906091.654319.9190811.654319 1.4705291 0 .551449-.24234 1.07992-.654319 1.47053-.411979.390609-.969362.620379-1.550979.620379z" fill="#175daa" opacity=".1" transform="translate(-586 -77)"/></svg>