<svg height="14" viewBox="0 0 15 14" width="15" xmlns="http://www.w3.org/2000/svg"><path d="m2.07815215 20.1035887c-.10011535-.0428226-.16685893-.1437615-.16685893-.2538767v-1.6364346h-.56428657c-.7432807 0-1.34700665-.6086924-1.34700665-1.3580877v-4.0069704c0-.7493953.60372595-1.3580877 1.34700665-1.3580877h3.25526608c.15168994 0 .27607568.125409.27607568.2783468s-.12438574.2783468-.27607568.2783468h-3.25526608c-.43686702 0-.79485527.3609332-.79485527.8044528v4.0069705c0 .4404609.35495445.8013941.79485527.8013941h.83732846c.15168994 0 .27607569.125409.27607569.2783468v1.2571488l1.51689938-1.4620855c.05157458-.0489401.12135195-.0764689.19112932-.0764689h3.6890993c.43686702 0 .79485528-.3578744.79485528-.8013941v-2.0463078c0-.1529378.12438575-.2783468.27607569-.2783468s.27607568.125409.27607568.2783468v2.0463078c0 .7493953-.60372595 1.3580877-1.34700665 1.3580877h-3.57684874l-1.90219183 1.8352537c-.05157458.0489401-.12135195.0764689-.19112932.0764689-.03640559 0-.07584497-.0061175-.10921676-.0214113zm8.64325475-6.3815076h-3.58004728c-.74371041 0-1.34590507-.6102702-1.34590507-1.3571681v-4.00774486c0-.74993407.60520563-1.35716814 1.34590507-1.35716814h6.51273528c.7437104 0 1.3459051.61027024 1.3459051 1.35716814v4.00774486c0 .749934-.6052056 1.3571681-1.3459051 1.3571681h-.566063v1.639532c0 .1093021-.0662414.2094957-.1656035.2520021-.0361317.0151809-.0722634.0212532-.108395.0212532-.0692524 0-.1385048-.0273255-.1896914-.0759042z" fill="#e20f20" transform="translate(0 -7)"/></svg>