<svg width="436px" height="492px" viewBox="0 0 436 492" version="1.1" xmlns="http://www.w3.org/2000/svg" xmlns:xlink="http://www.w3.org/1999/xlink">
    <!-- Generator: Sketch 51.2 (57519) - http://www.bohemiancoding.com/sketch -->
    <title>tijd2</title>
    <desc>Created with Sketch.</desc>
    <defs></defs>
    <g id="Page-1" stroke="none" stroke-width="1" fill="none" fill-rule="evenodd">
        <g id="tijd2" fill="#0C56A6" fill-rule="nonzero">
            <path d="M369.941,118.091 L409.889,78.143 L395.11,63.365 L354.254,104.221 C319.482,76.322 275.953,58.882 228.4,56.652 L228.4,20.9 L267.2,20.9 L267.2,0 L167.7,0 L167.7,20.9 L207.5,20.9 L207.5,56.656 C159.913,58.909 116.36,76.396 81.585,104.349 L40.777,63.541 L25.998,78.319 L65.912,118.233 C25.367,157.776 0.2,213.012 0.2,274.2 C0.2,394.6 97.6,492 218,492 C338.4,492 435.8,394.6 435.8,274.2 C435.8,212.939 410.573,157.643 369.941,118.091 Z M218,471.1 C109.1,471.1 21.2,383.1 21.2,274.2 C21.2,165.3 109.1,77.4 218,77.4 C326.9,77.4 414.8,165.4 414.8,274.3 C414.8,383.2 326.9,471.1 218,471.1 Z" id="Shape"></path>
            <path d="M218,104.7 C124.8,104.7 48.4,180 48.4,273.2 C48.4,366.4 124.8,442.8 218,442.8 C311.2,442.8 387.6,367.5 387.6,274.3 C387.6,181.1 311.2,104.7 218,104.7 Z M218,423 C136.3,423 69.3,356 69.3,274.3 C69.3,192.6 136.3,125.6 218,125.6 C299.7,125.6 366.7,192.6 366.7,274.3 C366.7,356 299.7,423 218,423 Z" id="Shape"></path>
            <polygon id="Shape" points="228.5 143.4 207.5 143.4 207.5 284.7 316.4 284.7 316.4 263.8 228.5 263.8"></polygon>
        </g>
    </g>
</svg>
