<svg height="10" viewBox="0 0 12 10" width="12" xmlns="http://www.w3.org/2000/svg"><path d="m9.40733382.1825041c-.12480434-.11526575-.28778863-.1825041-.46055773-.1825041h-5.89966686c-.17267318 0-.3357534.06723835-.4604618.1825041l-2.37905265 2.26689304c-.26860272.25934793-.27819568.681989-.01918591.95094241l5.3240896 5.6192052c.1247084.13438065.30697453.21122448.48924067.21122448.1821702 0 .36453226-.07684383.48924066-.21122448l5.3240896-5.6192052c.2590098-.26895341.2398239-.69159448-.0191859-.95094241zm.76743638 2.98730396-3.68369447 3.89021898c-.18226613.19210958-.49883362.05763287-.49883362-.20171506v-5.23498603c0-.16329315.12470841-.28816437.28778863-.28816437h2.27353015c.07674364 0 .14389432.02881643.20145204.07684383l1.41016427 1.34476705c.1151155.11526575.1151155.29776985.009593.4130356z" fill="#fff"></path></svg>