<svg clip-rule="evenodd" fill-rule="evenodd" stroke-linejoin="round" stroke-miterlimit="1.41421" viewBox="0 0 96 58" xmlns="http://www.w3.org/2000/svg"><g fill-rule="nonzero"><path d="m.5 37.2 30-30 6.8 6.7 12.9-12.9 16.4 16.4 4.5-4.4 23.7 23.7z" fill="#8bbeea"/><g fill="#1f6894"><path d="m.5 37.2 16.5-3.7h65l12.8 3.2z"/><path d="m29.5 56.2c1.8 0 3.2-1.5 3.2-3.2 0-1.8-1.4-3.2-3.2-3.2s-3.2 1.5-3.2 3.2c0 1.8 1.4 3.2 3.2 3.2z"/><path d="m65.5 56.5c-1.9 0-3.5-1.6-3.5-3.5s1.6-3.5 3.5-3.5 3.5 1.6 3.5 3.5-1.6 3.5-3.5 3.5zm0-6.5c-1.6 0-3 1.3-3 3 0 1.6 1.3 3 3 3s3-1.3 3-3c0-1.6-1.3-3-3-3zm-12 6.5c-1.9 0-3.5-1.6-3.5-3.5s1.6-3.5 3.5-3.5 3.5 1.6 3.5 3.5-1.6 3.5-3.5 3.5zm0-6.5c-1.6 0-3 1.3-3 3 0 1.6 1.3 3 3 3s3-1.3 3-3c0-1.6-1.3-3-3-3zm-12 6.5c-1.9 0-3.5-1.6-3.5-3.5s1.6-3.5 3.5-3.5 3.5 1.6 3.5 3.5-1.6 3.5-3.5 3.5zm0-6.5c-1.6 0-3 1.3-3 3 0 1.6 1.3 3 3 3 1.6 0 3-1.3 3-3 0-1.6-1.3-3-3-3z"/></g></g></svg>