<svg height="18" viewBox="0 0 28 18" width="28" xmlns="http://www.w3.org/2000/svg"><path d="m27.9994967 2.28026202c0-.58617235-.2360741-1.11648671-.6127406-1.52081776-.0062678-.00803099-.0076861-.01749768-.0144572-.02557353-.0062679-.00708881-.0149606-.00996022-.0217317-.0165555-.4282733-.43941615-1.031818-.71731523-1.7038975-.71731523h-23.2933852c-.67207942 0-1.27562413.27789908-1.70485825.71731523-.00626786.00659528-.01546377.00946669-.02173163.01704902-.00677112.00758233-.0081894.01749768-.01445726.02557354-.37611742.40433105-.61223736.93415188-.61223736 1.52032423v13.43938628c0 .6003948.24577336 1.143451.63877283 1.551147.00773189.0084797.01015668.0189334.01884934.0270093.0028823.0028265.00626786.0032752.00919591.0061466.42827335.4280651 1.02454368.6960488 1.68651217.6960488h23.29338525c.6619685 0 1.2587421-.2684324 1.6865122-.6964526.0028823-.0024228.0062678-.0033201.0091501-.005698.0082352-.0075823.0106142-.0179912.0183461-.026067.3935027-.4076512.6392761-.9512009.6392761-1.5520893v-13.43943108zm-9.1644823 6.00946669 8.0689792-6.56109233c.0791489.168561.1259977.35461968.1259977.55158077v13.43938625c0 .1780725-.0376529.3470822-.1028478.5028564zm6.8116553-7.34992373c.2032709 0 .3949668.04544911.5692316.12216972l-12.2159242 9.9323124-12.2159242-9.9323124c.17431059-.07667574.36600649-.12216972.5692316-.12216972zm-24.57381317 15.28225112c-.0651949-.1552808-.10284782-.3247839-.10284782-.5028565v-13.43893758c0-.19696109.04684883-.38306464.12599773-.55158078l8.06897916 6.56109234zm1.28042797.8376005c-.22399597 0-.43261968-.056845-.6199235-.1486405l8.17708832-8.01564326 3.77810198 3.07200966c.0898089.0734006.2008461.1103252.3114258.1103252s.221617-.0369246.3114258-.1103252l3.778102-3.07200966 8.1770883 8.01564326c-.1873495.0918404-.3958817.1486405-.6199692.1486405z" fill="#e41120"/></svg>