<svg enable-background="new 0 0 512 512" viewBox="0 0 512 512" xmlns="http://www.w3.org/2000/svg"><g fill="#1f6894"><path d="m256 132.9c-88.4 0-160.2 71.9-160.2 160.3s71.8 160.2 160.2 160.2 160.2-71.9 160.2-160.2-71.8-160.3-160.2-160.3zm10.4 299.4v-13.4c0-5.7-4.6-10.4-10.4-10.4s-10.4 4.6-10.4 10.4v13.4c-68.6-5.1-123.6-60.1-128.7-128.8h13.4c5.7 0 10.4-4.6 10.4-10.4 0-5.7-4.6-10.4-10.4-10.4h-13.4c5.1-68.6 60.1-123.6 128.7-128.7v13.4c0 5.7 4.6 10.4 10.4 10.4s10.4-4.6 10.4-10.4v-13.4c68.7 5.1 123.7 60.1 128.7 128.7h-13.4c-5.7 0-10.4 4.6-10.4 10.4 0 5.7 4.6 10.4 10.4 10.4h13.4c-5.1 68.7-60.1 123.7-128.7 128.8z"/><path d="m266.4 74.5v-13.4h16.7c5.7 0 10.4-4.6 10.4-10.4v-40.3c0-5.7-4.6-10.4-10.4-10.4h-54.1c-5.7 0-10.4 4.6-10.4 10.4v40.3c0 5.7 4.6 10.4 10.4 10.4h16.7v13.5c-116 5.4-208.6 101.3-208.6 218.5 0 120.7 98.2 218.9 218.9 218.9s218.9-98.2 218.9-218.9c0-117.2-92.6-213.1-208.5-218.6zm-27.1-34.2v-19.5h33.4v19.5zm16.7 449.8c-108.6 0-197-88.4-197-197s88.4-197 197-197 197 88.4 197 197c0 108.7-88.4 197-197 197z"/><path d="m332.4 216.7c-3.1-3.1-7.7-3.9-11.6-2.1l-95 43.2c-.1 0-.2.1-.2.1-.2.1-.3.2-.5.2-.1.1-.3.2-.4.2-.1.1-.3.2-.4.3-.2.1-.3.2-.5.3-.1.1-.2.2-.3.2-.5.4-1 .9-1.4 1.4-.1.1-.2.2-.2.3-.1.2-.2.3-.3.5-.1.1-.2.3-.3.4s-.2.3-.2.4c-.1.2-.2.3-.2.5 0 .1-.1.1-.1.2l-43.2 95c-1.8 3.9-.9 8.6 2.1 11.6 2 2 4.6 3 7.3 3 1.5 0 2.9-.3 4.3-.9l95-43.2c.1 0 .2-.1.2-.1.2-.1.3-.2.5-.2.1-.1.3-.2.4-.2.1-.1.3-.2.4-.3.2-.1.3-.2.5-.3.1-.1.2-.2.3-.2.5-.4 1-.9 1.4-1.4.1-.1.2-.2.2-.3.1-.1.2-.3.3-.5.1-.1.2-.3.3-.4s.2-.3.2-.4c.1-.2.2-.3.2-.5 0-.1.1-.1.1-.2l43.2-95c1.8-3.9 1-8.5-2.1-11.6zm-124.6 124.6 25.5-56.1 30.6 30.6zm70.8-40.2-30.6-30.6 56.1-25.5z"/></g></svg>