<?xml version="1.0" encoding="UTF-8"?> <svg xmlns="http://www.w3.org/2000/svg" xmlns:xlink="http://www.w3.org/1999/xlink" width="51px" height="42px" viewBox="0 0 51 42"> <!-- Generator: Sketch 48.2 (47327) - http://www.bohemiancoding.com/sketch --> <title>helmet</title> <desc>Created with Sketch.</desc> <defs></defs> <g id="Desktop---Travel-prep-overzicht" stroke="none" stroke-width="1" fill="none" fill-rule="evenodd" transform="translate(-391.000000, -1328.000000)"> <g id="helmet" transform="translate(391.000000, 1328.000000)" fill="#1F6894" fill-rule="nonzero"> <path d="M50.9526815,15.9542044 C50.8934139,15.7935473 49.4573457,11.9732554 45.6853382,8.0785982 C43.4706235,5.79211572 40.9061804,3.95643529 38.0629306,2.62277077 C34.5159406,0.958972419 30.5282788,0.0784150818 26.2108104,0.0053526759 C15.784698,-0.17083897 9.30301684,4.03671374 5.7040308,7.59752886 C1.99916,11.263177 0,15.6601508 0,17.9362101 C0,20.4376704 1.42152528,22.8643646 2.26890216,24.0881849 C3.57119503,25.969166 5.15309139,27.415481 6.3974116,27.8624746 C6.64284908,27.9506706 6.93191547,27.9922631 7.26640372,27.9921628 C8.10172787,27.9921628 9.22303052,27.7314834 10.6531222,27.2903027 L16.58486,31.3690692 C16.7155475,31.458969 16.8642643,31.5020648 17.0113873,31.5020648 C17.2530396,31.5020648 17.490608,31.3859066 17.637233,31.1700267 C17.8732076,30.8226546 17.7845552,30.3486008 17.4393092,30.1111731 L12.4718896,26.6954805 C12.9595771,26.5293112 13.4765497,26.3495115 14.0192215,26.1595893 L23.0282911,32.3553615 C23.1577833,32.4444596 23.3068985,32.4882569 23.4554161,32.4882569 C23.6395938,32.4882569 23.8226758,32.4209072 23.9663126,32.2888136 L31.9960229,24.9065039 C32.6593216,24.8982856 33.3344739,24.8764371 34.0161008,24.8385529 L23.6418848,34.3761534 L20.1055531,31.9445484 C19.760307,31.7071206 19.2890551,31.7963189 19.0531801,32.1435908 C18.8172055,32.4909629 18.9058579,32.9650167 19.2511039,33.2024445 L31.8507924,41.8671046 C31.9802846,41.9562026 32.1293998,42 32.2778178,42 C32.4619955,42 32.6451771,41.9325501 32.7888138,41.8004564 L34.9323078,39.8296757 C35.1030382,39.6726266 35.1930851,39.4458225 35.1768488,39.2137065 C35.1606124,38.9815906 35.0397863,38.7697196 34.8488351,38.6383275 L27.0694432,33.288636 L36.4934854,24.624477 C43.6471313,23.7739865 48.4974102,21.0692744 50.9086542,16.5814988 C51.0126463,16.3885699 51.0285838,16.1598615 50.9526815,15.9542044 Z M33.2054798,39.3537177 L32.2103822,40.2687517 L24.9260488,35.259517 L25.9213456,34.344483 L33.2054798,39.3537177 Z M23.3876817,30.7569084 L15.8012331,25.5394108 C18.0995201,24.7514593 20.374598,24.0468931 21.4690061,24.1571382 C21.693426,24.1796883 22.0146662,24.2199779 22.4213713,24.2710915 C23.9071446,24.4576061 26.6040682,24.7955573 29.7723433,24.8869605 L23.3876817,30.7569084 Z M36.6394131,16.6960534 C36.2215518,16.7140935 35.8974229,17.0695837 35.9153526,17.489918 C35.9327843,17.8991277 36.2679698,18.2190388 36.6711885,18.2190388 C36.6820459,18.2190388 36.6932022,18.2188383 36.7041592,18.2183372 C40.6443073,18.0480587 44.6190199,17.7856755 48.5447247,17.4371006 C46.1107698,20.5575369 41.9513814,22.4710904 36.1438565,23.132661 C30.6074683,23.7632627 25.00225,23.0595985 22.6087365,22.7591307 C22.1917717,22.7068144 21.8623635,22.6654224 21.6195159,22.640968 C19.9393051,22.4720926 16.9194479,23.529944 13.7223856,24.6502343 C11.2091417,25.5307916 7.76763806,26.7367723 6.90661469,26.427585 C5.1308785,25.7895668 1.51416199,21.4562345 1.51416199,17.9362101 C1.51416199,17.7718447 1.5301991,17.584829 1.56157605,17.3791719 C9.44555785,18.0993728 17.4313404,18.4622794 25.4017831,18.4622794 C28.097113,18.4622794 30.7917456,18.4207872 33.4788079,18.337903 C33.8967688,18.3249742 34.2251809,17.9736934 34.2123313,17.5530584 C34.1994817,17.1325236 33.8520442,16.801588 33.4322903,16.8150178 C22.9482052,17.138537 12.3656064,16.8243386 1.96031234,15.8846498 C2.50786504,14.3495375 3.57069698,12.3716409 5.20966951,10.3860272 C7.79403454,8.71551396 10.7291241,7.41041293 13.936745,6.50780658 C17.7126373,5.44524468 21.8831819,4.93801719 26.332035,5.00005509 C30.3327456,5.05617985 34.0978801,5.6077058 37.5229482,6.63919864 C37.9235771,6.75986687 38.3455224,6.53095804 38.4653524,6.12786203 C38.5852821,5.72476601 38.3578739,5.30022232 37.9571454,5.17955409 C34.3980031,4.10757125 30.493814,3.53459762 26.3532518,3.47646841 C21.7568772,3.41202516 17.4443892,3.93839519 13.5289442,5.04024443 C12.0597061,5.45366339 10.6444562,5.9486637 9.28937036,6.52143688 C12.817833,3.90682502 18.0884634,1.52352733 25.5807812,1.52352733 C25.7801991,1.52352733 25.9825058,1.52523112 26.1850116,1.52873892 C30.2728804,1.59779241 34.0407043,2.42442989 37.3839931,3.9854999 C40.0562136,5.23317328 42.4685533,6.95209416 44.5542738,9.09445629 C47.2399416,11.8527876 48.6945372,14.6229452 49.2564336,15.841554 C45.0797132,16.2265097 40.8400397,16.5146502 36.6394131,16.6960534 Z" id="Shape"></path> <path d="M46.6590164,14.6335215 C41.0513936,11.0068758 34.2182961,9.11326973 26.3492753,9.00518115 C21.762666,8.94203158 17.4593403,9.45643136 13.552214,10.5328134 C13.150349,10.6435454 12.9157703,11.0541645 13.0280897,11.4499998 C13.1404092,11.845835 13.5573827,12.0768939 13.9592477,11.9662598 C17.7270184,10.9283549 21.8889011,10.4325573 26.328203,10.4933572 C33.9049944,10.5973337 40.4663385,12.4088942 45.8296417,15.8776171 C45.9574672,15.9604458 46.1013951,16 46.2437327,16 C46.4896427,16 46.730881,15.8818271 46.8760017,15.6640834 C47.1049147,15.3205302 47.0079025,14.8591956 46.6590164,14.6335215 Z" id="Shape"></path> <path d="M11.9559736,11.5290997 C11.8167239,11.1142739 11.3886419,10.8983041 10.9995302,11.0469736 C8.60158223,11.9632441 6.36148337,13.1358016 4.34142849,14.5319933 C3.99463288,14.7715865 3.89573118,15.2657867 4.12030201,15.6357806 C4.26348805,15.871594 4.503706,16 4.74874603,16 C4.88809409,16 5.02911512,15.9585279 5.15478424,15.871594 C7.07820085,14.5422826 9.21428071,13.4245313 11.5038796,12.5496278 C11.892893,12.4009583 12.0953216,11.9441355 11.9559736,11.5290997 Z" id="Shape"></path> </g> </g> </svg> 