<svg height="12" viewBox="0 0 16 12" width="16" xmlns="http://www.w3.org/2000/svg"><path d="m38.0467536 580c1.0792463 0 1.9565476.867863 1.9532371 1.931485v8.140293c0 1.063622-.8773014 1.928222-1.9565476 1.928222h-12.0868955c-1.0792462 0-1.9565476-.8646-1.9565476-1.928222v-8.143556c0-1.063622.8773014-1.928222 1.9565476-1.928222zm-3.9561325 5.898858 3.9130951-3.458401c.1820814-.163132.1986343-.440457.0331057-.623165-.1655285-.179445-.4469271-.195759-.6323191-.032626l-5.396231 4.773246-1.0527617-.926591c-.0033106-.003262-.0066211-.006525-.0066211-.009788-.023174-.022838-.046348-.042414-.0728326-.06199l-4.2838791-3.77814c-.185392-.163132-.4667906-.146819-.6323191.035889-.1655286.182708-.1489757.460033.0364162.623165l3.9594432 3.487765-3.9428903 3.637847c-.1787708.166394-.1887026.443719-.0198634.623164.0893854.091354.208566.140294.3277465.140294.1092489 0 .2184977-.039152.3045726-.117455l4.0024806-3.690049 1.0858673.955954c.0860749.075041.1920132.11093.2979514.11093.1059383 0 .2151872-.039152.2979514-.114192l1.1156625-.985319 3.9793066 3.725938c.0860749.081566.1986343.120718.3078832.120718.1191805 0 .2350505-.045677.3244359-.137031.1688392-.176183.162218-.45677-.0165528-.623165z" fill="#e20f20" transform="translate(-24 -580)"/></svg>