<svg height="80" viewBox="0 0 80 80" width="80" xmlns="http://www.w3.org/2000/svg"><path d="m604 163 4.611294-22.678202c-2.702623-5.468984-4.095849-11.492903-4.067444-17.593723 0-21.897413 17.830662-39.728075 39.728075-39.728075 21.898106 0 39.728075 17.830662 39.728075 39.728075s-17.829969 39.728075-39.728075 39.728075c-6.094585.01732-12.11019-1.383527-17.570168-4.091zm23.245607-8.60738.590961.306912c5.079629 2.626414 10.717657 3.989157 16.435357 3.973223 19.816927 0 35.94468-16.127753 35.94468-35.94468s-16.127753-35.9446798-35.94468-35.9446798-35.94468 16.1277528-35.94468 35.9446798c-.015934 5.718393 1.346809 11.355728 3.973223 16.435357l.307605.590961-3.760533 18.398067zm22.701757-15.749483-11.989642-11.989642-23.623878 4.422159 24.262642-24.262641 11.989642 11.989642 23.623878-4.398604zm-10.712114-16.080642 10.712114 10.736363 12.958874-12.958874-13.57339 2.530115-10.736362-10.712807-12.958874 12.958874z" fill="#175daa" opacity=".1" transform="translate(-604 -83)"/></svg>