<svg height="28" viewBox="0 0 28 28" width="28" xmlns="http://www.w3.org/2000/svg"><g fill="none" fill-rule="evenodd"><circle cx="14" cy="14" fill="#cc2127" r="14"/><path d="m14.2 6.8c-3.8657111 0-7 3.1375288-7 7.0072359 0 2.884334 1.74144444 5.3614697 4.2284667 6.4371583-.0178889-.4884822-.0004667-1.0710171.1230444-1.5992069.1358-.5700776.9048667-3.8320238.9048667-3.8320238s-.2246222-.4495531-.2246222-1.1132162c0-1.0411195.6040222-1.8203241 1.3547333-1.8203241.6391778 0 .9481111.4814749.9481111 1.0568468 0 .6427971-.4097333 1.6041899-.6212889 2.4947317-.1751555.7458814.3752 1.354888 1.1100445 1.354888 1.33 0 2.2258444-1.711167 2.2258444-3.7396839 0-1.5405019-1.0355333-2.6948272-2.9222667-2.6948272-2.1303333 0-3.4594 1.590954-3.4594 3.3684561 0 .6124324.1810667 1.0451682.4643334 1.3791798.1298889.153692.1474666.2156671.1000222.3927166-.0342222.1286217-.1098222.4400544-.1423333.5644718-.0465112.1779838-.1913334.240426-.3520223.1750252-.9809333-.4003468-1.43888886-1.4765025-1.43888886-2.6859514 0-1.9981522 1.68326666-4.39369262 5.02102226-4.39369262 2.6830222 0 4.4479555 1.94349582 4.4479555 4.02807062 0 2.7602281-1.5325333 4.8203554-3.7905778 4.8203554-.7586444 0-1.4726444-.410624-1.7157777-.8759045 0 0-.4092667 1.6188273-.4946667 1.9327514-.1474667.5342628-.4315111 1.0680585-.6947111 1.4883369.6118.1750252 1.2586.2690779 1.9281111.2690779 3.8657111 0 7-3.1375288 7-7.0072359s-3.1342889-7.0072359-7-7.0072359" fill="#fff"/></g></svg>