<svg height="13" viewBox="0 0 13 13" width="13" xmlns="http://www.w3.org/2000/svg"><path d="m12.7897037 5.65999487-2.638205 2.68945457.6226819 3.79775626c.0446267.2734297-.0634536.5501406-.2778709.7134693-.1213289.0922369-.2656684.1392668-.4100078.1392668-.11086951 0-.22243626-.0277075-.32458957-.0838517l-3.26158429-1.7929697-3.26158429 1.7929697c-.23498748.1294234-.5194827.107549-.73459734-.054686-.21441735-.1633287-.322149-.4396749-.27717365-.7134692l.62303058-3.79775632-2.63890235-2.68981914c-.19070942-.19358823-.25834676-.48342371-.17711222-.74737452.08228048-.26395081.3001843-.45608075.56306346-.49618377l3.64648959-.55451544 1.63166376-3.45542231c.11679644-.24936789.35945413-.4068634.62477381-.4068634.26601698 0 .50762873.15749551.62512247.40649883l1.63166376 3.45542231 3.64718688.55451544c.2621819.03973845.480783.23223296.5616689.49618377.0829777.2639508.0135972.55378629-.1757177.74737452z" fill="#fff"></path></svg>