<svg height="21" viewBox="0 0 21 21" width="21" xmlns="http://www.w3.org/2000/svg"><path d="m10.5 21c-5.79898988 0-10.5-4.7010101-10.5-10.5 0-5.79898988 4.70101012-10.5 10.5-10.5 5.7989899 0 10.5 4.70101012 10.5 10.5 0 5.7989899-4.7010101 10.5-10.5 10.5zm0-2.1c4.6391919 0 8.4-3.7608081 8.4-8.4s-3.7608081-8.4-8.4-8.4-8.4 3.7608081-8.4 8.4 3.7608081 8.4 8.4 8.4zm-2.31746214-4.5075379-3.15-3.15c-.41005046-.4100505-.41005046-1.0748737 0-1.48492424.41005051-.41005046 1.07487376-.41005046 1.48492428 0l2.40753786 2.42232514 5.0325379-5.04732514c.4100505-.41005046 1.0748737-.41005046 1.4849242 0 .4100505.41005051.4100505 1.07487376 0 1.48492428l-5.77499996 5.77499996c-.41005052.4100505-1.07487377.4100505-1.48492428 0z" fill="#09e177"/></svg>