<svg height="28" viewBox="0 0 28 28" width="28" xmlns="http://www.w3.org/2000/svg"><g fill="none"><circle cx="14" cy="14" fill="#cd201f" r="14"/><path d="m14.3625.96363636c-.406875-.70181818-.8484375-.83090909-1.7475-.88-.898125-.05909091-3.1565625-.08363636-5.113125-.08363636-1.9603125 0-4.2196875.02454545-5.116875.08272727-.8971875.05-1.3396875.17818182-1.7503125.88090909-.4190625.70090909-.6346875 1.90818182-.6346875 4.03363637v.00272727.00272727.00181818c0 2.11636364.215625 3.33272728.6346875 4.02636364.410625.70181818.8521875.82909091 1.749375.88818182.898125.05090909 3.1575.08090909 5.1178125.08090909 1.9565625 0 4.215-.03 5.1140625-.08.8990625-.05909091 1.340625-.18636364 1.7475-.88818182.4228125-.69363636.6365625-1.91.6365625-4.02636363 0 0 0-.00272728 0-.00454546 0 0 0-.00181818 0-.00272727 0-2.12636364-.21375-3.33363637-.6375-4.03454546zm-8.7375 6.76363637v-5.45454546l4.6875 2.72727273z" fill="#fff" transform="translate(7 9)"/></g></svg>